<svg preserveAspectRatio="none" width="100%" height="100%" overflow="visible" style="display: block;" viewBox="0 0 433 584" fill="none" xmlns="http://www.w3.org/2000/svg">
<path id="Vector 839" d="M48.5737 422.661H146.79M48.5737 422.661L135.281 333.241M48.5737 422.661L1 583M146.79 422.661L200.503 351.742M146.79 422.661L135.281 333.241M146.79 422.661L178.25 576.062M200.503 351.742L192.829 315.511M200.503 351.742L135.281 333.241M192.829 315.511L135.281 333.241M192.829 315.511L246.542 307.803M192.829 315.511L167.508 258.468H212.012M192.829 315.511L370.08 422.661M246.542 307.803L274.933 258.468M246.542 307.803L212.012 258.468M274.933 258.468H212.012M274.933 258.468L307.16 215.299M274.933 258.468L255.75 196.799M212.012 258.468L192.829 196.799H255.75M307.16 215.299L255.75 196.799M307.16 215.299L292.581 115.087M307.16 215.299H433M255.75 196.799L292.581 115.087M292.581 115.087L370.08 1" stroke="url(#paint0_linear_0_4)" stroke-width="0.952593"/>
<defs>
<linearGradient id="paint0_linear_0_4" x1="109.5" y1="583" x2="-116.188" y2="273.828" gradientUnits="userSpaceOnUse">
<stop stop-color="white" stop-opacity="0"/>
<stop offset="1" stop-color="white"/>
</linearGradient>
</defs>
</svg>
