<svg preserveAspectRatio="none" width="100%" height="100%" overflow="visible" style="display: block;" viewBox="0 0 562 419" fill="none" xmlns="http://www.w3.org/2000/svg">
<path id="Vector 840" d="M90.9445 316.688L133.027 247.319M90.9445 316.688L233.21 285.53M90.9445 316.688L133.027 418.39V247.319M90.9445 316.688L1 327.269M133.027 247.319L250.258 146.792M133.027 247.319L233.21 285.53M133.027 247.319L153.259 179.713M250.258 146.792L396.051 107.405M250.258 146.792L363.13 199.701M250.258 146.792L233.21 285.53M250.258 146.792L153.259 179.713M250.258 146.792L309.045 99.7626M396.051 107.405L456.014 146.792M396.051 107.405L363.13 199.701M396.051 107.405L309.045 99.7626M396.051 107.405H561.831L456.014 146.792M456.014 146.792L363.13 199.701M153.259 179.713L78.5992 115.047M309.045 99.7626L270.246 1" stroke="url(#paint0_linear_0_5)"/>
<defs>
<linearGradient id="paint0_linear_0_5" x1="188.581" y1="48.2742" x2="674.411" y2="375.187" gradientUnits="userSpaceOnUse">
<stop stop-color="white" stop-opacity="0"/>
<stop offset="0.591764" stop-color="white"/>
<stop offset="1" stop-color="#FFF2D7"/>
</linearGradient>
</defs>
</svg>
