<svg preserveAspectRatio="none" width="100%" height="100%" overflow="visible" style="display: block;" viewBox="0 0 718 535" fill="none" xmlns="http://www.w3.org/2000/svg">
<path id="Vector 839" d="M115.916 404.333L169.681 315.705M115.916 404.333L297.679 364.525M115.916 404.333L169.681 534.271V315.705M115.916 404.333L1 417.852M169.681 315.705L319.46 187.269M169.681 315.705L297.679 364.525M169.681 315.705L195.531 229.33M319.46 187.269L505.729 136.946M319.46 187.269L463.669 254.867M319.46 187.269L297.679 364.525M319.46 187.269L195.531 229.33M319.46 187.269L394.569 127.182M505.729 136.946L582.34 187.269M505.729 136.946L463.669 254.867M505.729 136.946L394.569 127.182M505.729 136.946H717.535L582.34 187.269M582.34 187.269L463.669 254.867M195.531 229.33L100.143 146.711M394.569 127.182L344.997 1" stroke="url(#paint0_linear_0_19)"/>
<defs>
<linearGradient id="paint0_linear_0_19" x1="291.948" y1="34.1602" x2="279.329" y2="418.981" gradientUnits="userSpaceOnUse">
<stop stop-color="white" stop-opacity="0"/>
<stop offset="0.591764" stop-color="white"/>
<stop offset="1" stop-color="#FFF2D7"/>
</linearGradient>
</defs>
</svg>
